<?xml version="1.0" encoding="utf-8"?>
<!-- Generator: Adobe Illustrator 21.1.0, SVG Export Plug-In . SVG Version: 6.00 Build 0)  -->
<svg version="1.1" id="Layer_1" xmlns="http://www.w3.org/2000/svg" xmlns:xlink="http://www.w3.org/1999/xlink" x="0px" y="0px"
	 viewBox="0 0 398 71" style="enable-background:new 0 0 398 71;" xml:space="preserve">
<style type="text/css">
	.st0{fill:#FFFFFF;}
	.st1{enable-background:new    ;}
</style>
<rect x="-4.9" y="-3.7" class="st0" width="409" height="81"/>
<g class="st1">
	<path d="M44,26.2h-9.5v27.5h-7.8V26.2h-9.5V20H44V26.2z"/>
	<path d="M77.4,20v33.7h-7.9V39.4H55.8v14.2H48V20h7.9V34h13.7V20H77.4z"/>
	<path d="M91.8,53.7h-7.9V20h7.9V53.7z"/>
	<path d="M116.9,26.8c-0.2,0.4-0.5,0.6-0.7,0.8c-0.3,0.2-0.6,0.3-1,0.3c-0.4,0-0.7-0.1-1.1-0.3s-0.9-0.5-1.4-0.8
		c-0.5-0.3-1.1-0.5-1.8-0.8c-0.7-0.2-1.4-0.3-2.3-0.3c-1.5,0-2.6,0.3-3.3,0.9s-1.1,1.5-1.1,2.5c0,0.7,0.2,1.2,0.6,1.7s1,0.8,1.7,1.2
		c0.7,0.3,1.5,0.6,2.4,0.9s1.8,0.6,2.8,0.9c0.9,0.3,1.9,0.7,2.8,1.2s1.7,1,2.4,1.7c0.7,0.7,1.3,1.5,1.7,2.5c0.4,1,0.6,2.2,0.6,3.6
		c0,1.6-0.3,3-0.8,4.4s-1.3,2.5-2.3,3.5s-2.3,1.8-3.8,2.4c-1.5,0.6-3.2,0.9-5.1,0.9c-1,0-2.1-0.1-3.2-0.3s-2.1-0.5-3.2-0.9
		s-2-0.9-2.9-1.4c-0.9-0.5-1.7-1.1-2.3-1.8l2.3-3.7c0.2-0.3,0.4-0.5,0.7-0.7c0.3-0.2,0.6-0.3,1-0.3c0.5,0,0.9,0.1,1.4,0.4
		c0.5,0.3,1,0.6,1.6,1c0.6,0.4,1.3,0.7,2,1c0.8,0.3,1.7,0.4,2.7,0.4c1.4,0,2.5-0.3,3.3-0.9c0.8-0.6,1.2-1.6,1.2-3
		c0-0.8-0.2-1.4-0.6-1.9c-0.4-0.5-1-0.9-1.7-1.2c-0.7-0.3-1.5-0.6-2.4-0.9c-0.9-0.2-1.8-0.5-2.8-0.8c-0.9-0.3-1.9-0.7-2.8-1.1
		c-0.9-0.4-1.7-1-2.4-1.7c-0.7-0.7-1.3-1.6-1.7-2.7c-0.4-1.1-0.6-2.4-0.6-4c0-1.3,0.3-2.5,0.8-3.7c0.5-1.2,1.3-2.3,2.2-3.2
		s2.2-1.7,3.6-2.3c1.4-0.6,3.1-0.8,4.9-0.8c1,0,2,0.1,3,0.2c1,0.2,1.9,0.4,2.8,0.7c0.9,0.3,1.7,0.7,2.5,1.1s1.4,0.9,2,1.5
		L116.9,26.8z"/>
	<path d="M165.2,36.8c0,2.4-0.4,4.7-1.3,6.7c-0.8,2.1-2,3.8-3.5,5.3s-3.4,2.7-5.5,3.5c-2.2,0.8-4.5,1.3-7.2,1.3h-13.1V20h13.1
		c2.6,0,5,0.4,7.2,1.3c2.2,0.8,4,2,5.5,3.5s2.7,3.3,3.5,5.3C164.8,32.1,165.2,34.4,165.2,36.8z M157.2,36.8c0-1.7-0.2-3.2-0.6-4.5
		c-0.4-1.3-1.1-2.5-1.9-3.4c-0.8-0.9-1.8-1.6-3-2.2c-1.2-0.5-2.5-0.8-4-0.8h-5.2v21.7h5.2c1.5,0,2.8-0.3,4-0.8
		c1.2-0.5,2.2-1.2,3-2.2c0.8-0.9,1.4-2.1,1.9-3.4C157,40,157.2,38.5,157.2,36.8z"/>
	<path d="M177.7,26v7.9h10.6v5.8h-10.6v8h13.8v6h-21.7V20h21.7v6H177.7z"/>
	<path d="M218.3,44.9c0.2,0,0.4,0,0.6,0.1c0.2,0.1,0.4,0.2,0.5,0.4l3.1,3.3c-1.4,1.8-3.1,3.1-5.1,4c-2,0.9-4.5,1.4-7.3,1.4
		c-2.6,0-4.9-0.4-6.9-1.3s-3.7-2.1-5.2-3.6s-2.5-3.4-3.2-5.5s-1.1-4.4-1.1-6.9c0-2.5,0.4-4.8,1.2-6.9c0.8-2.1,2-3.9,3.4-5.4
		s3.3-2.7,5.3-3.6c2.1-0.8,4.3-1.3,6.8-1.3c1.3,0,2.5,0.1,3.6,0.3c1.1,0.2,2.2,0.5,3.1,0.9c1,0.4,1.9,0.9,2.7,1.4s1.5,1.2,2.2,1.8
		l-2.6,3.5c-0.2,0.2-0.4,0.4-0.6,0.6c-0.2,0.2-0.6,0.3-1,0.3c-0.3,0-0.5-0.1-0.8-0.2c-0.2-0.1-0.5-0.3-0.8-0.5
		c-0.3-0.2-0.6-0.4-0.9-0.6c-0.3-0.2-0.7-0.4-1.2-0.6c-0.5-0.2-1-0.3-1.6-0.5c-0.6-0.1-1.3-0.2-2.1-0.2c-1.3,0-2.5,0.2-3.5,0.7
		c-1.1,0.5-2,1.2-2.8,2.1c-0.8,0.9-1.4,2-1.8,3.4c-0.4,1.3-0.6,2.9-0.6,4.6c0,1.7,0.2,3.3,0.7,4.6c0.5,1.3,1.1,2.5,1.9,3.4
		c0.8,0.9,1.8,1.6,2.8,2.1c1.1,0.5,2.2,0.7,3.5,0.7c0.7,0,1.4,0,1.9-0.1s1.1-0.2,1.6-0.3s1-0.4,1.4-0.6s0.9-0.6,1.4-1
		c0.2-0.2,0.4-0.3,0.6-0.4C217.9,45,218.1,44.9,218.3,44.9z"/>
	<path d="M233.8,26v7.9h10.6v5.8h-10.6v8h13.8v6h-21.7V20h21.7v6H233.8z"/>
	<path d="M290.3,20v33.7h-6.9V34.3c0-0.4,0-0.9,0-1.5c0-0.5,0.1-1.1,0.1-1.6l-8.9,17.3c-0.3,0.5-0.7,0.9-1.1,1.2
		c-0.5,0.3-1,0.4-1.6,0.4h-1.1c-0.6,0-1.1-0.1-1.6-0.4c-0.5-0.3-0.8-0.7-1.1-1.2l-9-17.4c0,0.6,0.1,1.1,0.1,1.6c0,0.5,0,1,0,1.5
		v19.4h-6.9V20h6c0.3,0,0.6,0,0.9,0c0.3,0,0.5,0.1,0.7,0.1s0.4,0.2,0.5,0.4c0.2,0.2,0.3,0.4,0.5,0.7l8.7,17.1
		c0.3,0.6,0.6,1.2,0.9,1.8c0.3,0.6,0.6,1.3,0.8,1.9c0.3-0.7,0.5-1.3,0.8-2s0.6-1.3,0.9-1.9l8.6-17c0.2-0.3,0.3-0.5,0.5-0.7
		c0.2-0.2,0.3-0.3,0.5-0.4s0.4-0.1,0.7-0.1c0.3,0,0.6,0,0.9,0H290.3z"/>
	<path d="M309.2,20c2.3,0,4.3,0.2,5.9,0.6c1.6,0.4,3,1,4,1.8c1,0.8,1.8,1.7,2.3,2.9c0.5,1.1,0.7,2.4,0.7,3.8c0,0.8-0.1,1.5-0.3,2.2
		c-0.2,0.7-0.6,1.4-1,2c-0.5,0.6-1.1,1.2-1.8,1.7s-1.6,0.9-2.6,1.3c2.2,0.5,3.9,1.4,4.9,2.6c1.1,1.2,1.6,2.8,1.6,4.7
		c0,1.4-0.3,2.8-0.8,4c-0.6,1.2-1.4,2.3-2.4,3.2c-1.1,0.9-2.4,1.6-4,2.2s-3.4,0.8-5.4,0.8h-13.5V20H309.2z M304.6,25.8v8.3h4.1
		c0.9,0,1.6-0.1,2.3-0.2c0.7-0.1,1.3-0.3,1.8-0.6c0.5-0.3,0.9-0.7,1.1-1.3c0.3-0.5,0.4-1.2,0.4-2c0-0.8-0.1-1.5-0.3-2
		s-0.5-1-0.9-1.3c-0.4-0.3-0.9-0.6-1.6-0.7c-0.6-0.1-1.4-0.2-2.3-0.2H304.6z M310.2,47.8c1,0,1.9-0.1,2.5-0.4s1.2-0.6,1.5-1
		s0.6-0.9,0.8-1.4c0.1-0.5,0.2-1.1,0.2-1.6c0-0.6-0.1-1.2-0.2-1.7c-0.2-0.5-0.4-0.9-0.8-1.2c-0.4-0.3-0.9-0.6-1.6-0.8
		c-0.6-0.2-1.5-0.3-2.5-0.3h-5.5v8.4H310.2z"/>
	<path d="M335.7,26v7.9h10.6v5.8h-10.6v8h13.8v6h-21.7V20h21.7v6H335.7z"/>
	<path d="M381.9,53.7h-7.1c-1.3,0-2.3-0.5-2.8-1.5l-5.6-9.8c-0.3-0.4-0.6-0.7-0.9-0.9c-0.3-0.2-0.8-0.3-1.4-0.3h-2v12.5h-7.8V20h11
		c2.4,0,4.5,0.3,6.2,0.8c1.7,0.5,3.1,1.2,4.2,2.1c1.1,0.9,1.9,2,2.4,3.2s0.7,2.5,0.7,4c0,1.1-0.1,2.1-0.4,3.1
		c-0.3,1-0.7,1.9-1.3,2.7c-0.6,0.8-1.3,1.6-2.1,2.2c-0.8,0.6-1.8,1.2-2.9,1.6c0.5,0.3,1,0.6,1.4,1s0.8,0.9,1.2,1.4L381.9,53.7z
		 M365.3,35.8c1.1,0,2-0.1,2.7-0.4s1.4-0.6,1.8-1.1c0.5-0.5,0.8-1,1-1.7c0.2-0.6,0.3-1.3,0.3-2.1c0-1.5-0.5-2.6-1.4-3.5
		c-1-0.8-2.5-1.2-4.5-1.2h-3.1v10H365.3z"/>
</g>
<text transform="matrix(1 0 0 1 16.605 204.9727)" style="font-family:'Lato-Black'; font-size:46.252px;">THIS DECEmber</text>
</svg>
