<?xml version="1.0" encoding="utf-8"?>
<!-- Generator: Adobe Illustrator 22.0.0, SVG Export Plug-In . SVG Version: 6.00 Build 0)  -->
<svg version="1.1" id="Layer_1" xmlns="http://www.w3.org/2000/svg" xmlns:xlink="http://www.w3.org/1999/xlink" x="0px" y="0px"
	 viewBox="0 0 937 71" style="enable-background:new 0 0 937 71;" xml:space="preserve">
<style type="text/css">
	.st0{fill:#FFFFFF;}
	.st1{fill:#D33257;}
	.st2{enable-background:new    ;}
	.st3{fill:#231F20;}
	.st4{fill:#FFFAFA;}
</style>
<rect x="-5" y="-19" class="st0" width="403" height="123"/>
<rect x="398" y="-4" class="st1" width="553" height="81"/>
<g class="st2">
	<path class="st3" d="M44.1,27.5h-9.5V55h-7.8V27.5h-9.5v-6.2h26.8V27.5z"/>
	<path class="st3" d="M77.4,21.3V55h-7.9V40.7H55.9V55H48V21.3h7.9v14.1h13.7V21.3H77.4z"/>
	<path class="st3" d="M91.8,55H84V21.3h7.9L91.8,55L91.8,55z"/>
	<path class="st3" d="M117,28.1c-0.2,0.4-0.5,0.6-0.7,0.8c-0.3,0.2-0.6,0.3-1,0.3s-0.7-0.1-1.1-0.3s-0.9-0.5-1.4-0.8
		s-1.1-0.5-1.8-0.8c-0.7-0.2-1.4-0.3-2.3-0.3c-1.5,0-2.6,0.3-3.3,0.9s-1.1,1.5-1.1,2.5c0,0.7,0.2,1.2,0.6,1.7s1,0.8,1.7,1.2
		c0.7,0.3,1.5,0.6,2.4,0.9s1.8,0.6,2.8,0.9c0.9,0.3,1.9,0.7,2.8,1.2s1.7,1,2.4,1.7c0.7,0.7,1.3,1.5,1.7,2.5c0.4,1,0.6,2.2,0.6,3.6
		c0,1.6-0.3,3-0.8,4.4s-1.3,2.5-2.3,3.5s-2.3,1.8-3.8,2.4c-1.5,0.6-3.2,0.9-5.1,0.9c-1,0-2.1-0.1-3.2-0.3s-2.1-0.5-3.2-0.9
		s-2-0.9-2.9-1.4s-1.7-1.1-2.3-1.8l2.3-3.7c0.2-0.3,0.4-0.5,0.7-0.7c0.3-0.2,0.6-0.3,1-0.3c0.5,0,0.9,0.1,1.4,0.4
		c0.5,0.3,1,0.6,1.6,1s1.3,0.7,2,1c0.8,0.3,1.7,0.4,2.7,0.4c1.4,0,2.5-0.3,3.3-0.9c0.8-0.6,1.2-1.6,1.2-3c0-0.8-0.2-1.4-0.6-1.9
		s-1-0.9-1.7-1.2s-1.5-0.6-2.4-0.9c-0.9-0.2-1.8-0.5-2.8-0.8c-0.9-0.3-1.9-0.7-2.8-1.1c-0.9-0.4-1.7-1-2.4-1.7
		c-0.7-0.7-1.3-1.6-1.7-2.7c-0.4-1.1-0.6-2.4-0.6-4c0-1.3,0.3-2.5,0.8-3.7s1.3-2.3,2.2-3.2s2.2-1.7,3.6-2.3c1.4-0.6,3.1-0.8,4.9-0.8
		c1,0,2,0.1,3,0.2c1,0.2,1.9,0.4,2.8,0.7c0.9,0.3,1.7,0.7,2.5,1.1s1.4,0.9,2,1.5L117,28.1z"/>
	<path class="st3" d="M165.2,38.1c0,2.4-0.4,4.7-1.3,6.7c-0.8,2.1-2,3.8-3.5,5.3s-3.4,2.7-5.5,3.5c-2.2,0.8-4.5,1.3-7.2,1.3h-13.1
		V21.3h13.1c2.6,0,5,0.4,7.2,1.3c2.2,0.8,4,2,5.5,3.5s2.7,3.3,3.5,5.3C164.8,33.5,165.2,35.7,165.2,38.1z M157.2,38.1
		c0-1.7-0.2-3.2-0.6-4.5c-0.4-1.3-1.1-2.5-1.9-3.4c-0.8-0.9-1.8-1.6-3-2.2c-1.2-0.5-2.5-0.8-4-0.8h-5.2V49h5.2c1.5,0,2.8-0.3,4-0.8
		s2.2-1.2,3-2.2c0.8-0.9,1.4-2.1,1.9-3.4C157,41.3,157.2,39.8,157.2,38.1z"/>
	<path class="st3" d="M177.7,27.3v7.9h10.6V41h-10.6v8h13.8v6h-21.7V21.3h21.7v6H177.7z"/>
	<path class="st3" d="M218.4,46.3c0.2,0,0.4,0,0.6,0.1c0.2,0.1,0.4,0.2,0.5,0.4l3.1,3.3c-1.4,1.8-3.1,3.1-5.1,4s-4.5,1.4-7.3,1.4
		c-2.6,0-4.9-0.4-6.9-1.3s-3.7-2.1-5.2-3.6s-2.5-3.4-3.2-5.5s-1.1-4.4-1.1-6.9s0.4-4.8,1.2-6.9s2-3.9,3.4-5.4s3.3-2.7,5.3-3.6
		c2.1-0.8,4.3-1.3,6.8-1.3c1.3,0,2.5,0.1,3.6,0.3c1.1,0.2,2.2,0.5,3.1,0.9c1,0.4,1.9,0.9,2.7,1.4s1.5,1.2,2.2,1.8l-2.6,3.5
		c-0.2,0.2-0.4,0.4-0.6,0.6c-0.2,0.2-0.6,0.3-1,0.3c-0.3,0-0.5-0.1-0.8-0.2c-0.2-0.1-0.5-0.3-0.8-0.5s-0.6-0.4-0.9-0.6
		c-0.3-0.2-0.7-0.4-1.2-0.6s-1-0.3-1.6-0.5c-0.6-0.1-1.3-0.2-2.1-0.2c-1.3,0-2.5,0.2-3.5,0.7c-1.1,0.5-2,1.2-2.8,2.1s-1.4,2-1.8,3.4
		c-0.4,1.3-0.6,2.9-0.6,4.6c0,1.7,0.2,3.3,0.7,4.6s1.1,2.5,1.9,3.4c0.8,0.9,1.8,1.6,2.8,2.1c1.1,0.5,2.2,0.7,3.5,0.7
		c0.7,0,1.4,0,1.9-0.1s1.1-0.2,1.6-0.3s1-0.4,1.4-0.6s0.9-0.6,1.4-1c0.2-0.2,0.4-0.3,0.6-0.4C217.9,46.3,218.1,46.3,218.4,46.3z"/>
	<path class="st3" d="M233.8,27.3v7.9h10.6V41h-10.6v8h13.8v6H226V21.3h21.7v6H233.8z"/>
	<path class="st3" d="M290.4,21.3V55h-6.9V35.6c0-0.4,0-0.9,0-1.5c0-0.5,0.1-1.1,0.1-1.6l-8.9,17.3c-0.3,0.5-0.7,0.9-1.1,1.2
		c-0.5,0.3-1,0.4-1.6,0.4h-1.1c-0.6,0-1.1-0.1-1.6-0.4c-0.5-0.3-0.8-0.7-1.1-1.2l-9-17.4c0,0.6,0.1,1.1,0.1,1.6s0,1,0,1.5V55h-6.9
		V21.3h6c0.3,0,0.6,0,0.9,0s0.5,0.1,0.7,0.1s0.4,0.2,0.5,0.4c0.2,0.2,0.3,0.4,0.5,0.7l8.7,17.1c0.3,0.6,0.6,1.2,0.9,1.8
		s0.6,1.3,0.8,1.9c0.3-0.7,0.5-1.3,0.8-2s0.6-1.3,0.9-1.9l8.6-17c0.2-0.3,0.3-0.5,0.5-0.7s0.3-0.3,0.5-0.4s0.4-0.1,0.7-0.1
		c0.3,0,0.6,0,0.9,0h6.1V21.3z"/>
	<path class="st3" d="M309.3,21.3c2.3,0,4.3,0.2,5.9,0.6s3,1,4,1.8s1.8,1.7,2.3,2.9c0.5,1.1,0.7,2.4,0.7,3.8c0,0.8-0.1,1.5-0.3,2.2
		c-0.2,0.7-0.6,1.4-1,2c-0.5,0.6-1.1,1.2-1.8,1.7s-1.6,0.9-2.6,1.3c2.2,0.5,3.9,1.4,4.9,2.6c1.1,1.2,1.6,2.8,1.6,4.7
		c0,1.4-0.3,2.8-0.8,4c-0.6,1.2-1.4,2.3-2.4,3.2c-1.1,0.9-2.4,1.6-4,2.2s-3.4,0.8-5.4,0.8h-13.5V21.3H309.3z M304.7,27.1v8.3h4.1
		c0.9,0,1.6-0.1,2.3-0.2c0.7-0.1,1.3-0.3,1.8-0.6s0.9-0.7,1.1-1.3c0.3-0.5,0.4-1.2,0.4-2s-0.1-1.5-0.3-2s-0.5-1-0.9-1.3
		s-0.9-0.6-1.6-0.7c-0.6-0.1-1.4-0.2-2.3-0.2C309.3,27.1,304.7,27.1,304.7,27.1z M310.2,49.1c1,0,1.9-0.1,2.5-0.4s1.2-0.6,1.5-1
		s0.6-0.9,0.8-1.4c0.1-0.5,0.2-1.1,0.2-1.6c0-0.6-0.1-1.2-0.2-1.7c-0.2-0.5-0.4-0.9-0.8-1.2s-0.9-0.6-1.6-0.8
		c-0.6-0.2-1.5-0.3-2.5-0.3h-5.5v8.4H310.2z"/>
	<path class="st3" d="M335.7,27.3v7.9h10.6V41h-10.6v8h13.8v6h-21.7V21.3h21.7v6H335.7z"/>
	<path class="st3" d="M381.9,55h-7.1c-1.3,0-2.3-0.5-2.8-1.5l-5.6-9.8c-0.3-0.4-0.6-0.7-0.9-0.9s-0.8-0.3-1.4-0.3h-2V55h-7.8V21.3
		h11c2.4,0,4.5,0.3,6.2,0.8s3.1,1.2,4.2,2.1s1.9,2,2.4,3.2s0.7,2.5,0.7,4c0,1.1-0.1,2.1-0.4,3.1s-0.7,1.9-1.3,2.7
		c-0.6,0.8-1.3,1.6-2.1,2.2c-0.8,0.6-1.8,1.2-2.9,1.6c0.5,0.3,1,0.6,1.4,1s0.8,0.9,1.2,1.4L381.9,55z M365.3,37.1
		c1.1,0,2-0.1,2.7-0.4s1.4-0.6,1.8-1.1c0.5-0.5,0.8-1,1-1.7c0.2-0.6,0.3-1.3,0.3-2.1c0-1.5-0.5-2.6-1.4-3.5c-1-0.8-2.5-1.2-4.5-1.2
		h-3.1v10H365.3z"/>
</g>
<g class="st2">
	<path class="st4" d="M447.5,36.6c0,2.4-0.4,4.7-1.3,6.7c-0.8,2.1-2,3.8-3.5,5.3s-3.4,2.7-5.5,3.5c-2.2,0.8-4.5,1.3-7.2,1.3h-13.1
		V19.8H430c2.6,0,5,0.4,7.2,1.3c2.2,0.8,4,2,5.5,3.5s2.7,3.3,3.5,5.3C447.1,32,447.5,34.2,447.5,36.6z M439.5,36.6
		c0-1.7-0.2-3.2-0.6-4.5c-0.4-1.3-1.1-2.5-1.9-3.4c-0.8-0.9-1.8-1.6-3-2.2c-1.2-0.5-2.5-0.8-4-0.8h-5.2v21.7h5.2
		c1.5,0,2.8-0.3,4-0.8c1.2-0.5,2.2-1.2,3-2.2c0.8-0.9,1.4-2.1,1.9-3.4C439.3,39.8,439.5,38.3,439.5,36.6z"/>
	<path class="st4" d="M460,53.5h-7.9V19.8h7.9V53.5z"/>
	<path class="st4" d="M482.7,36h12v14.2c-1.7,1.3-3.6,2.2-5.5,2.8c-2,0.6-4,0.9-6.1,0.9c-2.8,0-5.3-0.4-7.6-1.3
		c-2.3-0.9-4.2-2.1-5.8-3.6c-1.6-1.5-2.9-3.4-3.7-5.5s-1.3-4.4-1.3-6.9c0-2.5,0.4-4.8,1.2-6.9c0.8-2.1,2-3.9,3.6-5.4
		c1.5-1.5,3.4-2.7,5.6-3.6c2.2-0.8,4.7-1.3,7.4-1.3c1.4,0,2.7,0.1,4,0.3s2.4,0.5,3.4,0.9c1,0.4,2,0.9,2.9,1.4
		c0.9,0.6,1.6,1.2,2.3,1.8l-2.3,3.4c-0.4,0.5-0.8,0.9-1.4,1c-0.6,0.1-1.2,0-1.8-0.4c-0.6-0.4-1.2-0.7-1.7-1
		c-0.5-0.3-1.1-0.5-1.7-0.7c-0.6-0.2-1.2-0.3-1.8-0.4c-0.6-0.1-1.3-0.1-2.1-0.1c-1.5,0-2.8,0.3-4,0.8c-1.2,0.5-2.2,1.2-3,2.2
		s-1.5,2.1-1.9,3.4s-0.7,2.8-0.7,4.4c0,1.8,0.2,3.4,0.7,4.8c0.5,1.4,1.2,2.6,2.1,3.5c0.9,1,2,1.7,3.2,2.2s2.6,0.8,4.2,0.8
		c0.9,0,1.8-0.1,2.6-0.3c0.8-0.2,1.5-0.4,2.2-0.7v-5.1h-3.3c-0.5,0-0.9-0.1-1.2-0.4s-0.4-0.6-0.4-1V36z"/>
	<path class="st4" d="M507.8,53.5h-7.9V19.8h7.9V53.5z"/>
	<path class="st4" d="M538.5,26H529v27.5h-7.8V26h-9.5v-6.2h26.8V26z"/>
	<path class="st4" d="M569.4,53.5h-6.1c-0.7,0-1.2-0.2-1.6-0.5c-0.4-0.3-0.7-0.7-0.9-1.2l-2-5.9H546l-2,5.9
		c-0.2,0.4-0.5,0.8-0.9,1.2s-1,0.5-1.6,0.5h-6.1l13-33.7h8L569.4,53.5z M557,40.6l-3.1-9.2c-0.2-0.6-0.5-1.3-0.7-2.1
		c-0.3-0.8-0.5-1.7-0.8-2.6c-0.2,0.9-0.5,1.8-0.7,2.6c-0.3,0.8-0.5,1.5-0.7,2.1l-3.1,9.2H557z"/>
	<path class="st4" d="M592.4,47.3v6.2h-20.3V19.8h7.8v27.5H592.4z"/>
	<path class="st4" d="M634.1,19.8l-13.5,33.7h-7.1L600,19.8h6.3c0.7,0,1.2,0.2,1.6,0.5c0.4,0.3,0.7,0.7,0.9,1.2l6.5,18
		c0.3,0.8,0.6,1.6,0.9,2.6c0.3,0.9,0.6,1.9,0.8,2.9c0.2-1,0.5-2,0.7-2.9s0.6-1.8,0.9-2.6l6.5-18c0.2-0.4,0.5-0.8,0.9-1.2
		c0.4-0.3,1-0.5,1.6-0.5H634.1z"/>
	<path class="st4" d="M664.2,53.5h-6.1c-0.7,0-1.2-0.2-1.6-0.5c-0.4-0.3-0.7-0.7-0.9-1.2l-2-5.9h-12.8l-2,5.9
		c-0.2,0.4-0.5,0.8-0.9,1.2s-1,0.5-1.6,0.5h-6.1l13-33.7h8L664.2,53.5z M651.7,40.6l-3.1-9.2c-0.2-0.6-0.5-1.3-0.7-2.1
		c-0.3-0.8-0.5-1.7-0.8-2.6c-0.2,0.9-0.5,1.8-0.7,2.6c-0.3,0.8-0.5,1.5-0.7,2.1l-3.1,9.2H651.7z"/>
	<path class="st4" d="M687.1,47.3v6.2h-20.3V19.8h7.8v27.5H687.1z"/>
	<path class="st4" d="M711.4,47.3v6.2h-20.3V19.8h7.8v27.5H711.4z"/>
	<path class="st4" d="M723.3,25.8v7.9h10.6v5.8h-10.6v8h13.8v6h-21.7V19.8h21.7v6H723.3z"/>
	<path class="st4" d="M758,40.7v12.8h-7.8V40.7L738,19.8h6.9c0.7,0,1.2,0.2,1.6,0.5c0.4,0.3,0.7,0.7,1,1.2l4.8,9.8
		c0.4,0.8,0.8,1.5,1.1,2.2c0.3,0.7,0.6,1.3,0.9,2c0.2-0.7,0.5-1.3,0.8-2c0.3-0.7,0.7-1.4,1.1-2.1l4.7-9.8c0.1-0.2,0.2-0.4,0.4-0.6
		c0.2-0.2,0.3-0.4,0.5-0.5s0.4-0.3,0.7-0.4s0.6-0.2,0.9-0.2h6.9L758,40.7z"/>
	<path class="st4" d="M768.5,59.2c-0.3-0.3-0.5-0.6-0.5-1c0-0.2,0.1-0.3,0.2-0.5c0.1-0.2,0.2-0.3,0.4-0.5c0.2-0.2,0.4-0.4,0.6-0.7
		c0.2-0.3,0.5-0.6,0.7-0.9c0.2-0.3,0.5-0.7,0.7-1.1c0.2-0.4,0.4-0.8,0.5-1.2c-0.5,0-1-0.2-1.4-0.4c-0.4-0.2-0.8-0.5-1.1-0.8
		s-0.5-0.7-0.7-1.2c-0.2-0.5-0.3-1-0.3-1.5c0-0.5,0.1-1,0.3-1.4c0.2-0.4,0.5-0.8,0.8-1.1c0.3-0.3,0.8-0.6,1.2-0.8
		c0.5-0.2,1-0.3,1.6-0.3c0.7,0,1.3,0.1,1.8,0.4s0.9,0.6,1.3,1c0.3,0.4,0.6,0.9,0.8,1.4c0.2,0.5,0.2,1.1,0.2,1.7
		c0,0.8-0.1,1.6-0.4,2.5c-0.2,0.9-0.6,1.7-1.1,2.6c-0.5,0.9-1.1,1.7-1.8,2.6c-0.7,0.8-1.6,1.6-2.5,2.3L768.5,59.2z"/>
	<path class="st4" d="M819.5,19.8L806,53.5h-7.1l-13.5-33.7h6.3c0.7,0,1.2,0.2,1.6,0.5c0.4,0.3,0.7,0.7,0.9,1.2l6.5,18
		c0.3,0.8,0.6,1.6,0.9,2.6c0.3,0.9,0.6,1.9,0.8,2.9c0.2-1,0.5-2,0.7-2.9s0.6-1.8,0.9-2.6l6.5-18c0.2-0.4,0.5-0.8,0.9-1.2
		c0.4-0.3,1-0.5,1.6-0.5H819.5z"/>
	<path class="st4" d="M830,53.5h-7.9V19.8h7.9V53.5z"/>
	<path class="st4" d="M860.4,22.6c0,0.4-0.1,0.8-0.2,1.2c-0.1,0.4-0.3,0.7-0.5,1.1l-15.8,22.6h16v6h-26v-3c0-0.4,0.1-0.7,0.2-1.1
		s0.3-0.7,0.5-1l15.9-22.7h-15.3v-6h25.2V22.6z"/>
	<path class="st4" d="M894.9,53.5h-6.1c-0.7,0-1.2-0.2-1.6-0.5c-0.4-0.3-0.7-0.7-0.9-1.2l-2-5.9h-12.8l-2,5.9
		c-0.2,0.4-0.5,0.8-0.9,1.2s-1,0.5-1.6,0.5h-6.1l13-33.7h8L894.9,53.5z M882.5,40.6l-3.1-9.2c-0.2-0.6-0.5-1.3-0.7-2.1
		c-0.3-0.8-0.5-1.7-0.8-2.6c-0.2,0.9-0.5,1.8-0.7,2.6c-0.3,0.8-0.5,1.5-0.7,2.1l-3.1,9.2H882.5z"/>
	<path class="st4" d="M912.7,36h12v14.2c-1.7,1.3-3.6,2.2-5.5,2.8c-2,0.6-4,0.9-6.1,0.9c-2.8,0-5.3-0.4-7.6-1.3
		c-2.3-0.9-4.2-2.1-5.8-3.6c-1.6-1.5-2.9-3.4-3.7-5.5s-1.3-4.4-1.3-6.9c0-2.5,0.4-4.8,1.2-6.9c0.8-2.1,2-3.9,3.6-5.4
		c1.5-1.5,3.4-2.7,5.6-3.6c2.2-0.8,4.7-1.3,7.4-1.3c1.4,0,2.7,0.1,4,0.3s2.4,0.5,3.4,0.9c1,0.4,2,0.9,2.9,1.4
		c0.9,0.6,1.6,1.2,2.3,1.8l-2.3,3.4c-0.4,0.5-0.8,0.9-1.4,1c-0.6,0.1-1.2,0-1.8-0.4c-0.6-0.4-1.2-0.7-1.7-1
		c-0.5-0.3-1.1-0.5-1.7-0.7c-0.6-0.2-1.2-0.3-1.8-0.4c-0.6-0.1-1.3-0.1-2.1-0.1c-1.5,0-2.8,0.3-4,0.8c-1.2,0.5-2.2,1.2-3,2.2
		s-1.5,2.1-1.9,3.4s-0.7,2.8-0.7,4.4c0,1.8,0.2,3.4,0.7,4.8c0.5,1.4,1.2,2.6,2.1,3.5c0.9,1,2,1.7,3.2,2.2s2.6,0.8,4.2,0.8
		c0.9,0,1.8-0.1,2.6-0.3c0.8-0.2,1.5-0.4,2.2-0.7v-5.1h-3.3c-0.5,0-0.9-0.1-1.2-0.4s-0.4-0.6-0.4-1V36z"/>
</g>
</svg>
