<?xml version="1.0" encoding="utf-8"?>
<!-- Generator: Adobe Illustrator 21.1.0, SVG Export Plug-In . SVG Version: 6.00 Build 0)  -->
<svg version="1.1" id="Layer_1" xmlns="http://www.w3.org/2000/svg" xmlns:xlink="http://www.w3.org/1999/xlink" x="0px" y="0px"
	 viewBox="0 0 225 154" style="enable-background:new 0 0 225 154;" xml:space="preserve">
<style type="text/css">
	.st0{clip-path:url(#SVGID_2_);}
	.st1{fill:#929392;}
	.st2{fill:#D33257;}
	.st3{fill:#FFFFFF;}
</style>
<g>
	<g>
		<defs>
			<polygon id="SVGID_1_" points="9.1,128 23.6,122.4 48,89.1 74.3,114.4 100.5,97.1 121.1,128 127.2,128 146.9,37.1 81.8,-25.7 
				15.7,-25.7 -5.9,58.7 			"/>
		</defs>
		<clipPath id="SVGID_2_">
			<use xlink:href="#SVGID_1_"  style="overflow:visible;"/>
		</clipPath>
		<g class="st0">
			<polygon class="st1" points="9.1,128 127.2,128 106.1,56.3 86,95.2 49,3.3 			"/>
			<polygon class="st2" points="49,3.3 33.7,51.1 44.3,43.2 49,58.7 55.5,44.1 68.2,51 			"/>
			<polygon class="st2" points="96.1,75.7 106.1,56.3 113,79.7 104.6,73.7 			"/>
		</g>
	</g>
</g>
<g>
	<path class="st3" d="M97.8,11.2c7.5,0,14.5,1.4,21.1,4.3c6.6,2.8,12.3,6.7,17.2,11.7c4.9,4.9,8.7,10.7,11.6,17.2
		c2.8,6.5,4.3,13.5,4.3,21s-1.4,14.5-4.3,21.1c-2.8,6.6-6.7,12.3-11.6,17.3c-4.9,4.9-10.6,8.8-17.2,11.7c-6.6,2.8-13.6,4.3-21.1,4.3
		H66.4V11.2H97.8z M97.8,87.9c3.2,0,6.2-0.6,9-1.7s5.3-2.7,7.4-4.8c2.1-2,3.7-4.5,4.9-7.3c1.2-2.8,1.8-5.8,1.8-9s-0.6-6.2-1.8-9
		c-1.2-2.8-2.8-5.2-4.9-7.3c-2.1-2-4.6-3.7-7.4-4.9s-5.9-1.8-9-1.8V87.9z"/>
</g>
<g>
	<path class="st3" d="M157.6,119.6V104h61.9v15.6H157.6z"/>
</g>
<g>
	<path class="st2" d="M188.6,11.6c4-0.2,8,0,12,0.5s8,1.5,12.1,2.9c-0.2,1.3-0.2,2.2-0.2,2.8c0,0.6,0,1.5,0,2.8s0,3.1-0.1,5.7
		c-0.1,2.5-0.3,6.4-0.6,11.5c-2.4-1-5.2-1.9-8.4-2.7s-6.1-1.4-8.8-1.8c-1.5-0.2-3-0.1-4.4,0.1c-1.4,0.2-2.6,0.8-3.7,1.6
		c-0.8,0.8-1,1.7-0.4,2.6c0.6,0.9,1.3,1.6,2.1,2.2l13,4.2c2.7,0.8,5.2,2,7.5,3.5s4.2,3.3,5.9,5.3s3,4.2,3.9,6.7
		c0.9,2.4,1.4,5,1.4,7.7c0.1,4-0.6,7.6-1.9,10.9c-1.3,3.2-3.2,6-5.5,8.4c-2.4,2.4-5.2,4.3-8.5,5.8s-6.9,2.4-10.7,2.9
		c-0.5,0.1-1.3,0.1-2.4,0.2c-1.1,0-2.2,0.1-3.4,0.1c-2.3,0.1-4.5,0-6.6-0.1c-2.1-0.2-4.1-0.4-5.8-0.8c-2-0.5-4.2-1-6.3-1.7
		c-2.2-0.7-4.9-1.7-8.4-3l5.5-24.5c1.1,0.4,2.3,0.8,3.4,1.2c1.1,0.4,2.3,0.9,3.4,1.3l5.3,1.9c1.7,0.7,3.5,1.3,5.2,1.9
		s3.5,0.9,5.5,0.9c1.2-0.1,2.2-0.4,3.1-0.9c0.8-0.5,1.3-1.4,1.5-2.7c0-0.9-0.3-1.7-0.8-2.4c-0.5-0.7-1.2-1.3-2-1.8s-1.6-0.9-2.6-1.3
		c-0.9-0.3-1.8-0.6-2.6-0.9c-3.6-0.8-6.8-2.2-9.8-4.2c-3-1.9-5.5-4.2-7.7-6.7s-3.9-5.3-5.1-8.2c-1.3-3-1.9-5.9-1.9-8.9
		c0-2.4,0.3-4.8,1-7.1s1.8-4.4,3.2-6.3s3.3-3.6,5.6-5.1c2.2-1.5,4.9-2.6,8-3.4C182.2,12.1,185.5,11.6,188.6,11.6z"/>
</g>
<g>
	<path class="st3" d="M6.5,142.3c0-0.8,0-2,0-3.6s0-2.8,0-3.6c1.8-0.3,3.5-0.4,4.8-0.4c0.9,0,1.6,0.1,2.3,0.2
		c0.7,0.2,1.3,0.4,1.9,0.8c0.6,0.4,1,0.8,1.4,1.4c0.4,0.6,0.7,1.3,0.9,2.2c0.2,0.9,0.3,1.9,0.3,3c0,0.7,0,1.3-0.1,1.9
		c-0.1,0.6-0.2,1.1-0.3,1.6c-0.1,0.5-0.3,0.9-0.5,1.3c-0.2,0.4-0.4,0.7-0.6,1s-0.5,0.5-0.8,0.7s-0.6,0.4-0.9,0.5
		c-0.3,0.1-0.7,0.2-1.1,0.3c-0.4,0.1-0.8,0.1-1.2,0.2c-0.4,0-0.9,0.1-1.3,0.1c-0.2,0-0.3,0-0.5,0s-0.4,0-0.5,0s-0.3,0-0.6,0
		c-0.2,0-0.4,0-0.5,0s-0.3,0-0.6,0s-0.5,0-0.6,0s-0.3,0-0.7-0.1c-0.4,0-0.6,0-0.6-0.1c-0.1,0-0.1,0-0.2-0.1c0,0-0.1-0.1-0.1-0.2
		c0-0.8,0-1.9,0-3.4S6.5,143.1,6.5,142.3z M11.4,142.3c0,1,0,2.1,0,3.3h0.4c0.1,0,0.2,0,0.3,0s0.2-0.1,0.3-0.2s0.2-0.2,0.2-0.3
		c0.1-0.2,0.1-0.3,0.2-0.6c0-0.2,0.1-0.5,0.1-0.9s0-0.8,0-1.3c0-0.6,0-1.1-0.1-1.5c0-0.4-0.1-0.7-0.1-1c-0.1-0.2-0.1-0.4-0.2-0.5
		c-0.1-0.1-0.2-0.2-0.3-0.3c-0.1,0-0.2-0.1-0.4-0.1h-0.4C11.4,140.4,11.4,141.5,11.4,142.3z"/>
	<path class="st3" d="M20.9,142.3c0-2.3,0-4.8,0.1-7.5c0.8,0,1.5-0.1,2.2-0.1s1.5,0,2.5,0.1c0.1,0,0.1,0,0.2,0.1
		c0,0,0.1,0.1,0.1,0.2c0.1,3.1,0.1,5.5,0.1,7.2c0,2.3,0,4.8-0.1,7.5c-0.8,0-1.5,0.1-2.2,0.1s-1.5,0-2.5-0.1c-0.1,0-0.1,0-0.2-0.1
		c0,0-0.1-0.1-0.1-0.2C20.9,146.4,20.9,144,20.9,142.3z"/>
	<path class="st3" d="M28.7,142.3c0-1.2,0.1-2.2,0.3-3c0.2-0.9,0.5-1.6,0.9-2.2c0.4-0.6,0.9-1,1.4-1.4c0.6-0.4,1.2-0.6,1.9-0.8
		s1.5-0.2,2.3-0.2c1.2,0,2.7,0.1,4.4,0.4l-0.5,3.9H35c-0.1,0-0.3,0-0.4,0.1c-0.1,0-0.2,0.1-0.3,0.2c-0.1,0.1-0.2,0.3-0.2,0.5
		c-0.1,0.2-0.1,0.6-0.1,1s-0.1,0.9-0.1,1.5c0,0.5,0,0.9,0,1.3c0,0.4,0.1,0.7,0.1,0.9c0.1,0.2,0.1,0.4,0.2,0.6
		c0.1,0.2,0.2,0.3,0.3,0.3c0.1,0.1,0.2,0.1,0.3,0.2c0.1,0,0.2,0,0.3,0h0.5c0-0.8,0-2.1-0.1-3.8c0.7,0,1.4,0,2,0s1.3,0,2.2,0
		c0.1,0,0.1,0,0.2,0.1c0,0,0.1,0.1,0.1,0.2c0.1,1.5,0.1,2.7,0.1,3.5c0,1.4,0,2.6-0.1,3.8c-0.7,0.1-1.2,0.2-1.6,0.3
		c-0.3,0.1-0.8,0.1-1.3,0.1s-1,0.1-1.6,0.1c-0.5,0-0.9,0-1.3-0.1c-0.4,0-0.8-0.1-1.2-0.2c-0.4-0.1-0.8-0.2-1.1-0.3
		c-0.3-0.1-0.6-0.3-0.9-0.5s-0.6-0.5-0.8-0.7c-0.2-0.3-0.4-0.6-0.6-1s-0.3-0.8-0.5-1.3c-0.1-0.5-0.2-1-0.3-1.6
		C28.8,143.6,28.7,143,28.7,142.3z"/>
	<path class="st3" d="M43.1,142.3c0-2.3,0-4.8,0.1-7.5c0.8,0,1.5-0.1,2.2-0.1s1.5,0,2.5,0.1c0.1,0,0.1,0,0.2,0.1
		c0,0,0.1,0.1,0.1,0.2c0.1,3.1,0.1,5.5,0.1,7.2c0,2.3,0,4.8-0.1,7.5c-0.8,0-1.5,0.1-2.2,0.1s-1.5,0-2.5-0.1c-0.1,0-0.1,0-0.2-0.1
		c0,0-0.1-0.1-0.1-0.2C43.1,146.4,43.1,144,43.1,142.3z"/>
	<path class="st3" d="M50.7,136.7c0-0.7,0-1.3,0-1.9c0.8,0,2.7-0.1,5.8-0.1c2.4,0,4.1,0,5.1,0.1c0.1,0,0.1,0,0.2,0.1
		s0.1,0.1,0.1,0.2c0,0.9,0,1.6,0,2.1c0,0.7,0,1.3,0,1.9c-0.3,0-1.3,0-3,0c0,0.9,0,2,0,3.2c0,2.3,0,4.8-0.1,7.5
		c-0.8,0-1.5,0.1-2.2,0.1s-1.5,0-2.5-0.1c-0.1,0-0.1,0-0.2-0.1c0,0-0.1-0.1-0.1-0.2c-0.1-3.1-0.1-5.5-0.1-7.2c0-0.8,0-1.8,0-3.2
		c-1,0-1.9,0-2.8-0.1c-0.1,0-0.1,0-0.2-0.1s-0.1-0.1-0.1-0.2C50.7,137.8,50.7,137.1,50.7,136.7z"/>
	<path class="st3" d="M62.9,149.6c0-0.1,0-0.3,0.1-0.8c0.2-1.4,0.5-2.8,0.8-4.2c0.3-1.5,0.6-3.3,1.1-5.4c0.4-2.2,0.7-3.6,0.9-4.3
		c0.8,0,2-0.1,3.4-0.1s2.5,0,3.5,0.1c0.1,0,0.1,0,0.2,0.1c0.1,0,0.1,0.1,0.1,0.2c0.2,0.9,0.5,2.4,0.9,4.5s0.8,3.9,1.1,5.6
		c0.3,1.6,0.6,3.1,0.8,4.6c-0.8,0-1.5,0.1-2.2,0.1c-1.1,0-1.9,0-2.4-0.1c-0.1,0-0.1,0-0.2-0.1c-0.1,0-0.1-0.1-0.1-0.2
		c-0.2-1-0.3-1.8-0.5-2.5h-2.3c-0.1,0.9-0.3,1.8-0.5,2.7c-0.8,0-1.5,0.1-2.1,0.1c-0.7,0-1.5,0-2.5-0.1c-0.1,0-0.1,0-0.1-0.1
		C62.9,149.7,62.9,149.6,62.9,149.6z M68.6,143.8H70c-0.1-0.7-0.2-1.6-0.4-2.9c-0.2-1.3-0.3-2.1-0.4-2.7c-0.1,0.7-0.2,1.6-0.3,2.9
		C68.7,142.4,68.6,143.3,68.6,143.8z"/>
	<path class="st3" d="M78.1,142.3c0-2.3,0-4.8,0.1-7.5c0.8,0,1.5-0.1,2.2-0.1s1.5,0,2.5,0.1c0.1,0,0.1,0,0.2,0.1
		c0,0,0.1,0.1,0.1,0.2c0.1,3.1,0.1,5.5,0.1,7.2c0,1.1,0,2.2,0,3.2h0.1c1.5,0,2.8,0,3.8,0.1c0.1,0,0.1,0,0.2,0.1c0,0,0.1,0.1,0.1,0.2
		c0,1,0,1.7,0,2.1c0,0.7,0,1.3,0,1.8c-0.8,0-2,0.1-3.7,0.1c-0.4,0-1.3,0-2.6,0c-1.3,0-2.2,0-2.7-0.1c-0.1,0-0.1,0-0.2-0.1
		c0,0-0.1-0.1-0.1-0.2C78.1,146.4,78.1,144,78.1,142.3z"/>
	<path class="st3" d="M98.2,149.6l0.6-4.5c1.8,0.6,3.3,0.9,4.4,0.9c0.4,0,0.8-0.1,1-0.3s0.3-0.4,0.3-0.6c0-0.1,0-0.2,0-0.2
		c0-0.1-0.1-0.1-0.2-0.2c-0.1-0.1-0.2-0.1-0.2-0.2c-0.1,0-0.2-0.1-0.3-0.1c-0.2-0.1-0.3-0.1-0.4-0.1s-0.3-0.1-0.5-0.1
		c-0.4-0.1-0.7-0.2-0.9-0.3c-0.2-0.1-0.5-0.2-0.9-0.3c-0.4-0.2-0.7-0.3-0.9-0.5c-0.2-0.2-0.5-0.4-0.8-0.6c-0.3-0.3-0.5-0.6-0.7-0.9
		c-0.2-0.3-0.3-0.7-0.4-1.1c-0.1-0.4-0.2-0.9-0.2-1.5s0.1-1.1,0.2-1.5s0.2-0.8,0.4-1.1c0.2-0.3,0.4-0.6,0.7-0.8
		c0.3-0.2,0.6-0.4,0.9-0.5s0.7-0.2,1.1-0.3s0.9-0.1,1.2-0.1c0.4,0,0.9,0,1.4,0c1.4,0,3,0.2,4.8,0.5l-0.6,4.1
		c-0.6-0.3-1.4-0.5-2.2-0.7c-0.8-0.2-1.6-0.3-2.3-0.3c-0.4,0-0.7,0.1-0.9,0.2c-0.2,0.1-0.3,0.3-0.3,0.5c0,0.1,0,0.1,0.1,0.2
		c0,0.1,0.1,0.1,0.2,0.2s0.2,0.1,0.3,0.2c0.1,0,0.2,0.1,0.4,0.2c0.2,0.1,0.3,0.1,0.4,0.1s0.3,0.1,0.5,0.1c1,0.3,1.8,0.6,2.3,0.8
		c1.4,0.6,2.2,1.5,2.6,2.7c0.1,0.5,0.2,1,0.2,1.5c0,0.6-0.1,1.1-0.2,1.5c-0.1,0.5-0.3,0.9-0.5,1.2s-0.4,0.6-0.7,0.9
		c-0.3,0.3-0.6,0.5-0.9,0.6s-0.7,0.3-1.1,0.4c-0.4,0.1-0.8,0.2-1.3,0.2c-0.4,0-0.9,0.1-1.4,0.1C101.7,149.9,100,149.8,98.2,149.6z"
		/>
	<path class="st3" d="M111.7,142.4c0-2.4,0-4.9,0.1-7.5c0.8,0,1.5-0.1,2.2-0.1s1.5,0,2.5,0.1c0.1,0,0.1,0,0.2,0.1
		c0,0,0.1,0.1,0.1,0.2c0.1,3.1,0.1,5.8,0.1,8.1c0,0.5,0,1,0.1,1.3c0,0.3,0.1,0.6,0.2,0.8s0.2,0.3,0.3,0.4c0.1,0.1,0.3,0.1,0.4,0.1
		c0.2,0,0.4-0.1,0.6-0.2c0.1-0.1,0.2-0.4,0.3-0.7c0.1-0.4,0.1-0.9,0.1-1.7c0-2.9,0-5.6,0.1-8.3c0.8,0,1.5-0.1,2.2-0.1s1.5,0,2.5,0.1
		c0.1,0,0.1,0,0.2,0.1c0,0,0.1,0.1,0.1,0.2c0.1,3.1,0.1,5.5,0.1,7.3c0,1.1-0.1,2-0.2,2.8c-0.2,0.8-0.4,1.5-0.7,2.1
		c-0.3,0.6-0.7,1.1-1.1,1.5c-0.5,0.4-1,0.7-1.5,0.9c-0.6,0.2-1.2,0.3-1.9,0.3c-0.6,0-1.1,0-1.6-0.1c-0.5,0-0.9-0.1-1.4-0.2
		c-0.4-0.1-0.8-0.3-1.2-0.5c-0.3-0.2-0.6-0.4-0.9-0.7s-0.5-0.6-0.7-1s-0.4-0.8-0.5-1.3s-0.3-1.1-0.3-1.7
		C111.7,143.9,111.7,143.2,111.7,142.4z"/>
	<path class="st3" d="M126.7,142.3c0-2.3,0-4.8,0.1-7.5c0.8,0,1.5-0.1,2.1-0.1c0.7,0,1.4,0,2.1,0.1c0.1,0,0.2,0.1,0.3,0.2l3.1,6.4
		l3.1-6.4c0.1-0.2,0.2-0.2,0.3-0.2c0.5,0,1.1-0.1,1.7-0.1c0.7,0,1.5,0,2.3,0.1c0.1,0,0.1,0,0.2,0.1c0,0,0.1,0.1,0.1,0.2
		c0.1,3.1,0.1,5.5,0.1,7.2c0,2.3,0,4.8-0.1,7.5c-0.7,0-1.4,0.1-1.9,0.1s-1.3,0-2.3-0.1c-0.1,0-0.1,0-0.2-0.1c0,0-0.1-0.1-0.1-0.2
		c0-0.5,0-1.2-0.1-2.1c0-0.9,0-1.8-0.1-2.5c0-0.8,0-1.5,0-2.2l-2.8,5.8h-0.3h-0.2l-2.7-5.5l0.1,6.7c-0.8,0-1.5,0.1-2.1,0.1
		s-1.4,0-2.4-0.1c-0.1,0-0.1,0-0.2-0.1c0,0-0.1-0.1-0.1-0.2C126.7,146.4,126.7,144,126.7,142.3z"/>
	<path class="st3" d="M145.4,142.3c0-2.3,0-4.8,0.1-7.5c0.8,0,1.5-0.1,2.1-0.1c0.7,0,1.4,0,2.1,0.1c0.1,0,0.2,0.1,0.3,0.2l3.1,6.4
		l3.1-6.4c0.1-0.2,0.2-0.2,0.3-0.2c0.5,0,1.1-0.1,1.7-0.1c0.7,0,1.5,0,2.3,0.1c0.1,0,0.1,0,0.2,0.1c0,0,0.1,0.1,0.1,0.2
		c0.1,3.1,0.1,5.5,0.1,7.2c0,2.3,0,4.8-0.1,7.5c-0.7,0-1.4,0.1-1.9,0.1s-1.3,0-2.3-0.1c-0.1,0-0.1,0-0.2-0.1c0,0-0.1-0.1-0.1-0.2
		c0-0.5,0-1.2-0.1-2.1c0-0.9,0-1.8-0.1-2.5c0-0.8,0-1.5,0-2.2l-2.8,5.8H153h-0.2l-2.7-5.5l0.1,6.7c-0.8,0-1.5,0.1-2.1,0.1
		s-1.4,0-2.4-0.1c-0.1,0-0.1,0-0.2-0.1c0,0-0.1-0.1-0.1-0.2C145.4,146.4,145.4,144,145.4,142.3z"/>
	<path class="st3" d="M164.1,142.3c0-2.3,0-4.8,0.1-7.5c0.8,0,1.5-0.1,2.2-0.1s1.5,0,2.5,0.1c0.1,0,0.1,0,0.2,0.1s0.1,0.1,0.1,0.2
		c0.1,3.1,0.1,5.5,0.1,7.2c0,2.3,0,4.8-0.1,7.5c-0.8,0-1.5,0.1-2.2,0.1s-1.5,0-2.5-0.1c-0.1,0-0.1,0-0.2-0.1c0,0-0.1-0.1-0.1-0.2
		C164.1,146.4,164.1,144,164.1,142.3z"/>
	<path class="st3" d="M171.7,136.7c0-0.7,0-1.3,0-1.9c0.8,0,2.7-0.1,5.8-0.1c2.4,0,4.1,0,5.1,0.1c0.1,0,0.1,0,0.2,0.1
		s0.1,0.1,0.1,0.2c0,0.9,0,1.6,0,2.1c0,0.7,0,1.3,0,1.9c-0.3,0-1.3,0-3,0c0,0.9,0,2,0,3.2c0,2.3,0,4.8-0.1,7.5
		c-0.8,0-1.5,0.1-2.2,0.1s-1.5,0-2.5-0.1c-0.1,0-0.1,0-0.2-0.1c0,0-0.1-0.1-0.1-0.2c-0.1-3.1-0.1-5.5-0.1-7.2c0-0.8,0-1.8,0-3.2
		c-1,0-1.9,0-2.8-0.1c-0.1,0-0.1,0-0.2-0.1c0,0-0.1-0.1-0.1-0.2C171.7,137.8,171.7,137.1,171.7,136.7z"/>
	<path class="st3" d="M193.7,137.4c0-0.3,0-0.7,0-1.2c0-0.6,0-1,0-1.3c0-0.1,0-0.1,0.1-0.2c0,0,0.1-0.1,0.2-0.1c0.2,0,0.8,0,1.7,0
		c1,0,1.6,0,1.8,0c0.1,0,0.1,0,0.2,0.1c0,0,0.1,0.1,0.1,0.2c0,0.3,0,0.7,0,1.2s0,0.9,0,1.2c-0.1,0.5-0.2,1.2-0.5,2.2s-0.5,1.6-0.6,2
		c-0.2,0-0.6,0-1,0c-0.5,0-1,0-1.4,0c0-0.2-0.1-0.8-0.2-1.8C193.9,138.7,193.8,138,193.7,137.4z"/>
	<path class="st3" d="M200,138.8c0-1.2,0-2.4,0.1-3.5c0.4-0.1,1-0.2,1.6-0.3c0.7-0.1,1.2-0.2,1.6-0.2c0.6,0,1.4,0,2.4,0.1
		c0.1,0,0.1,0,0.2,0.1s0.1,0.1,0.1,0.2c0.1,3.1,0.1,5.5,0.1,7.2c0,2.3,0,4.8-0.1,7.5c-0.8,0-1.5,0.1-2.2,0.1s-1.5,0-2.5-0.1
		c-0.1,0-0.1,0-0.2-0.1c0,0-0.1-0.1-0.1-0.2c-0.1-3.1-0.1-5.5-0.1-7.2c0-1.2,0-2.4,0-3.5L200,138.8z"/>
	<path class="st3" d="M208.4,136.7c0-0.7,0-1.3,0-1.9c0.8,0,2.9-0.1,6.4-0.1c1.9,0,3.3,0,4.3,0.1c0.1,0,0.1,0,0.2,0.1
		c0,0,0.1,0.1,0.1,0.2c0,0.4,0,0.8,0,1.2s0,0.8,0,1.3c-0.1,0.1-0.2,0.4-0.6,1c-0.3,0.6-0.6,1.2-0.9,1.7c-0.3,0.6-0.6,1.2-1,1.9
		c-0.3,0.7-0.6,1.4-0.8,2s-0.3,1.1-0.3,1.5v1.9c0,0.7,0,1.4,0,2.1c-0.7,0-1.6,0.1-2.5,0.1s-1.9,0-2.9-0.1c-0.1,0-0.1,0-0.2-0.1
		c0,0-0.1-0.1-0.1-0.2v-2.9c0.3-1.2,0.8-2.4,1.4-3.6c0.6-1.2,1.4-2.5,2.3-4c-2.7,0-4.5-0.1-5.3-0.1c-0.1,0-0.1,0-0.2-0.1
		c0,0-0.1-0.1-0.1-0.2C208.4,137.8,208.4,137.1,208.4,136.7z"/>
</g>
</svg>
