<?xml version="1.0" encoding="utf-8"?>
<!-- Generator: Adobe Illustrator 19.0.0, SVG Export Plug-In . SVG Version: 6.00 Build 0)  -->
<svg version="1.1" id="Layer_1" xmlns="http://www.w3.org/2000/svg" xmlns:xlink="http://www.w3.org/1999/xlink" x="0px" y="0px"
	 viewBox="0 0 468 448" style="enable-background:new 0 0 468 448;" xml:space="preserve">
<style type="text/css">
	.st0{stroke:#F16B6B;stroke-width:21;stroke-miterlimit:10;}
	.st1{fill:#32C1EC;}
</style>
<ellipse id="XMLID_1_" class="st0" cx="180.7" cy="247.6" rx="166.3" ry="164.9"/>
<path id="XMLID_7_" class="st1" d="M87.8,213.4l-2.9-2.8l-2.9-2.9l-1.9-2.2l1.9-3.5l5.7-3.5h4l3.7,1.6l8.6-1.6l7.1,1.6l4.3,2.2
	l3.4,2.2l5.2-2.2l5.8,0.3l1.5,1.9h4.3h4.3l3.7-2.2v-3.8l2.5-3.2l4.3-2.2h6.4h1.8h2.1h4.3h4.3h3.4c0,0,2.5-1.6,4-3.2
	c1.5-1.6,5.2-4.2,5.2-4.2s0.9-2.2,1.8-2.2s7.7,0,7.7,0h3.1l1.5-2.2v-7v-4.8v-2.6v-3.2h10.1l3.4-1.6l2.1-2.6h3.4l4.3-2.9h8v2.2
	l1.8,1.3l3.7-1.9l3.1-1.6l2.8-4.2l-2.5-5.1l1.2-2.5l3.4-2.9l3-2.2l4.3-1.6c0,0,6.7,0.6,8,0c1.2-0.6,4.9-2.2,4.9-2.2l3.1-2.9h3.1
	c0,0,0.6,0,1.5,1.9s0.9,1.9,0.9,1.9l3.1,1.6l7.4-1l2.5-4.5v-2.2h4.9h1.8c0,0,4-1.6,4.9-2.2l-0.7,0.8l11.8-9.3l2.9-3.6l-1.1,3
	c-0.1-1.8,2.5-4.4,1.4-4.3c-1.3,0.1,1-1,6.6-3.3c0.9-0.4-0.3-1.3,0-2.2c0.3-1,0-4.8,0-4.8l0.1-3.8c0,0,3.2-3.5,4.2-3.5s4.3,0,4.3,0
	l2.5-2.2c0,0-0.6,5.7,1.5,0c2.1-5.7,1.8-7.3,1.8-7.3l2.8-2.2h2.5c0,0,1.8-3.5,3.1-4.2c1.2-0.6,2.8-1.9,2.8-1.9s2.5,1,4,0
	c1.5-1,4.3,0,4.3,0l3.1,4.2l2.5-0.3v-2.9c0,0,1.5-0.2,1.8-1.4c0.3-1.2-1.2-1.2,0-3.4c1.2-2.2,1.8-4.8,1.8-4.8c-3.1-0.3-4.3,0-4.3,0
	l0.9-1.9l3.1-4.8l0.3-3.8v-3.8c0,0,2.5-1.3,4-1.6c1.5-0.3,1.5,0,3.4,0s2.5,2.6,2.8,3.5c0.3,1,0,4.5,0,4.5l0.1,2.6c0,0-1.7,0.6,0,1.6
	c1.7,1,5.7,1.9,5.7,1.9s1.5,1,2.1-1.6c0.6-2.6-1.2-2.2,1.5-4.8s0-1.9,2.8-2.6c2.8-0.6,6.4-1.3,6.4-1.3l3.1,1.3l6.1-1.6l1.5-9.9H394
	l0.6-4.5v-3.8l2.8-1.9h6.1h3.1l3.1-1.9l3.1-2.2v-2.2c-0.6-1.9-2.8-5.1-2.8-5.1l-1.2-1.9c0,0,0.9-3.8,2.1-2.9c1.2,1,1.8,2.9,1.8,2.9
	l4.3-3h2.5c0,0,2.1-0.8,2.1-2.1c0-1.3-2.5-3.2,0-3.2c2.5,0,4.9,0,4.9,0v3.2c0,0,1.5,2.6,2.5,2.6c0.9,0,0.9,0,0.9,0s2.1,0,2.8,2.2
	c0.6,2.2-1.8,2.6,0,4.5c1.8,1.9,1.8-1,1.8,1.9s0,5.1,0,5.1l2.8,0.6l3.4-1.3l2.8,0.3h1.8l1.8,0.6l2.1,0.3l2.1-0.3h1.8L455,35h1.5
	c0,0,1.8,1.3,3.4-0.6c1.5-1.9,0-2.9,1.5-1.9c1.5,1,1.5,5.7,1.5,7s0,8.3,0,8.3v2.9v1.6c0,0-1.8,1.3-2.7,1.9c-0.9,0.6-2.5,1.9-2.5,1.9
	s-3.4,1.3-4,2.9c-0.6,1.6-0.6,1.6-0.6,1.6l-2.5,3.2l-1.8,1.3c0,0-0.3,0.6-1.8,1.3c-1.5,0.6-3.4,1.6-3.4,1.6l-1.8,1.3
	c-2.1,0.6-1.2,0.3-3.7,1.3c-2.5,1,1.2-1-2.5,1c-3.7,1.9-3.7,1.9-3.7,1.9l-5.8,2.9c0,0-0.3,0.6-0.9,1.6c-0.6,1,2.8-2.9-0.6,1
	c-3.4,3.8-4,5.4-4,5.4c-0.9,2.6-1.2,3.5-1.8,4.5s3.1-4.2-0.6,1s-1.5,3.2-3.7,5.1c-2.1,1.9-5.8,4.2-5.8,4.2c-3.4,3.8-3.4,3.8-3.4,3.8
	s-2.8,2.2-4,2.9c-1.2,0.6-5.2,1.6-5.2,1.6l-3.4,1.3c-1.5,0.6-3.4,1.6-3.4,1.6s-1.2,1.3-2.1,1.6c-0.9,0.3-0.3,0-2.5,1.6
	s-4.6,3.2-4.6,3.2s1.8-1.3-2.5,1.3c-4.3,2.6-5.5,2.9-6.4,3.5c-0.9,0.6-1.2,1.6-2.5,1.9c-1.2,0.3-2.8,1.3-2.8,1.3s-1.2,0.6-2.1,1.3
	c-0.9,0.6,0.6-1.6-2.1,2.2c-2.8,3.8-2.8,3.8-2.8,3.8l-7.1,6.1l-0.9,1.9c0,0,0,2.2,0,3.2s0,1,0,1l1.2,2.6l1.8,1.9h1.8l1.5,4.5
	c-1.8,4.2-0.6,0-1.8,4.2c-1.2,4.2-4.3,4.5-4.3,4.5l-0.6,1.6l-2.2,2.2l-3.1,3.2l-2.5,2.2l-3.4,1.9l-4.3,1.6h-4.9l-4.3,3h-2.1H322
	l-1.8-2.7h-5.8h-3.1l-6.1,1.3l-2.5,1.4c0,0-1.2,2.4-1.8,3.4c-0.6,1,0.6-1.9-0.6,1c-1.2,2.9-1.2,2.9-1.2,2.9s0.6-0.6-0.9,2.2
	c-1.5,2.9-1.5,2.9-1.5,2.9s0.3-2.9-0.6,2.2s-0.9,5.1-0.9,5.1s-0.9,1-2.8,2.6c-1.8,1.6,0.3-0.6-1.8,1.6c-2.1,2.2-0.6-0.3-2.1,2.2
	s-2.8,6.4-2.8,6.4l-2.1,2.6h-1.8h-3.4h-2.5l-1.5-2.6l-1.2-3.2l-4.6-1c0,0-2.1,0-3.4,0.6c-1.2,0.6-3.1,4.5-4,3.5s-2.8,0-2.8,0
	l-2.1,2.6h-1.8h-1.8c0,0-0.6,2.2-1.2,3.2s-0.6,1-0.6,1L250,219c0,0-0.3,0-0.3,2.2c0,2.2,0.3-0.3,0,2.2c-0.3,2.6-0.3,2.6-0.3,2.6
	l-2.5,5.1c0,0-2.8,4.8-3.1,6.1c-0.3,1.3-1.5,2.9-1.5,2.9l-1.8,1.3c0,0,0.6,2.2,0,3.2c-0.6,1-0.6,1-0.6,1l0.6,2.2v4.5v2.2v1.6v2.6
	c0,0,0,1,0,2.2c0,1.3,1.8,6.7,1.8,6.7l1.5,3.5l0.9,1.6l1.8,5.1c0,0,0.3,1,0.3,1.9s-0.3-4.8,0,1c0.3,5.7,0.3,5.7,0.3,5.7
	s-0.3,2.2-0.6,4.5c-0.3,2.2-0.6,8.3-0.6,9.6c0,1.3,0-3.5,0,1.3c0,4.8,1.5,7.3,1.5,7.3l1.8,2.6l0.3,5.1l1.2,4.2l0.9,3.2
	c0,0,0.3,1,0,2.2c-0.3,1.3-0.9,3.8-0.9,3.8s-0.9,1.3-0.9,2.2s0,1,0,1s-0.6,1-1.5,1.9c-0.9,1-6.4,2.2-6.4,2.2c-3.1,1-7.7,3.5-7.7,3.5
	v3.2l-2.1,2.9l-1.8,1.6c-1.8,1.6-3.4,2.2-3.4,2.2s-0.6-1.3-2.5,0c-1.8,1.3-3.4,1.6-4.3,1.6s-4,0-4,0l-2.1-2.6l-3.4-2.2
	c-1.8,0.6-2.1,2.2-2.1,2.2v2.6l-2.8,2.6c0,0-1.8,1.3-3.1,1.9c-1.2,0.6-4,1.6-4,1.6s-0.6-1.6-1.5,0s-3.7,3.2-3.7,3.2s-0.9-1-1.8,0
	s-4.8,2.2-4.8,2.2h-4.7v-1.6h-1.8h-1.5c0,0,1.8,0-1.5,0s-3.4,0-3.4,0h-2.5l-1.8,1.6c0,0-1.8-1.9-3.1,0c-1.2,1.9-2.5,3.5-2.5,3.5v4.2
	c0,0,2.1-1.9,0,1.6c-1.5,2.5-0.9,3.8-0.4,4.4c0.2,0.2,0.1,0.5-0.2,0.6l-3.4,1.1v1.6l-1.2,1l-1.3,1.3c-0.1,0.1-0.3,0.1-0.3-0.1
	c-0.1-0.3-0.6-0.5-2.1,0.3c-2.5,1.3-2.5,1.3-2.5,1.3h-3.4l-2.5-1.6c0,0-2.8-2.9-2.8-3.8s0-1,0-1V377v-1.6v-1.6l2.8-2.2
	c0,0-0.9-1.3,0-1.9s-1.5,0.3,0.9-0.6s5.5-1.3,5.5-1.3l0.9-1.9l0.6-1.9c0,0,0,0.3,0.3-1.6c0.3-1.9,1.2-3.8,1.2-3.8l1.8-0.6
	c0,0,1.3,1.6,1.9-1.6c0.6-3.2,0.6-3.2,0.6-3.2s0,1.9,0,0s-0.6-3.2-0.6-3.2c-1.5-0.6-6.1-1.9-6.1-1.9l-3.4-0.3c0,0-1.8,3.2-0.9-1.6
	c0.9-4.8,0.9-4.8,0.9-4.8v-3.8l-0.3-2.2c-2.1-1-6.1-1.6-6.1-1.6c-3.4-1.9-5.8-3.2-7.4-3.8c-1.5-0.6-1.5-0.6-1.5-0.6V323v-2.2v-1.9
	c0,0-1.5-1.3-2.5-1.6s-3.7-1.9-3.7-1.9l-1.8-1c0,0,3.4-9.3-1.5-2.6c-4.9,6.7-4.9,6.7-4.9,6.7s-0.6,2.6-2.8,4.2c-2.1,1.6-4,2.6-4,2.6
	l-3.7-0.6c-1.8,0-6.7,0.3-6.7,0.3l-2.5-2.2l-2.8-3.8l-3.7-0.6h-7.4v3.2l-2.9,3.5l-2.9-0.3l-1.9-0.6l-2.5-2.9v-2.6l2.5-2.6v-2.2v-1.6
	l-2.5-3.2l-1.5-2.6c0,0-2.1,0.3-1.5-1.3c0.6-1.6,1.8-4.8,1.8-4.8c1.5,0,3.7-0.3,3.7-0.3l1.9,2.4l4.2,4.6l3.7-1.6
	c2.8,1,0.3,0.3,2.8,1c2.5,0.6,2.5,0.6,2.5,0.6s2.1,1.3,2.8,2.2s2.8,2.6,2.8,2.6c0-2.6-1.2-4.8-1.2-4.8l-1.5-3.5l1.8-3.8
	c0,0,0-0.6,1.5-0.6s2.1-0.6,3.1-1c0.9-0.3,0.9-0.3,0.9-0.3s2.1,0,0.6-1.6c-1.5-1.6-1.5-1.6-1.5-1.6l-3.7-4.8l-1.8,2.2
	c0,0,2.1,2.6-2.5,1c-4.6-1.6-4.6-1.6-4.6-1.6s-3.1-1.3-4,0.3c-0.9,1.6-1.4,1.6-2.9,2.9c-1.4,1.3-0.6,1.3-2.9,1.3c-2.2,0-5.3,0-5.3,0
	l-2.3-3.2l-1.4-3.8c0,0-3.7,0.6,0-1.9c3.7-2.6,3.7-2.6,3.7-2.6l1.5-3.8h-2.8c0,0,2.5,1.6-1.8,0s-4.3-1.6-4.3-1.6v-1.3l-2.8-3.5
	l-1.8-4.8l1.5-2.2c0.6-2.9,1.5-4.8,1.5-4.8l2.1-0.3l1.2-7.7c-1.8-0.3-4,0-4,0s-3.4-1.9-2.5-2.9s1.8-2.6,2.8-3.2
	c0.9-0.6,3.7-1.9,3.7-1.9l3.1,2.9l5.8,1.6c1.5,0.3-0.9,0.3,1.5,0.3c1.3,0,2.5-0.9,2.9-2.1c0.8-2.5,3.3-5.5,3.3-5.5
	c-1.2-2.2-2.9-5.1-2.9-5.1l-4.8-5.1v-2.2l-1.5-3.2c0,0-0.6-2.6-0.9-3.5c-0.3-1-0.3-2.6-0.3-3.5s2.8-4.2,2.8-4.2l2.6-1.5l5-2.8
	c-1.9,1.4-3.8,2.8-5.7,4.3"/>
</svg>
